<?xml version="1.0"?>
<svg xmlns="http://www.w3.org/2000/svg" xmlns:xlink="http://www.w3.org/1999/xlink" xmlns:svgjs="http://svgjs.com/svgjs" version="1.1" width="512" height="512" x="0" y="0" viewBox="0 0 64 64" style="enable-background:new 0 0 512 512" xml:space="preserve" class=""><g><path xmlns="http://www.w3.org/2000/svg" d="m36 14h24a2 2 0 0 1 2 2v34a2 2 0 0 1 -2 2h-56a2 2 0 0 1 -2-2v-34a2 2 0 0 1 2-2h24" fill="#4a78a0" data-original="#cccccc" style="" class=""/><path xmlns="http://www.w3.org/2000/svg" d="m36 18h22v30h-52v-30h22" fill="#f2f2f2" data-original="#f2f2f2" style="" class=""/><path xmlns="http://www.w3.org/2000/svg" d="m36 10h-8v24l2-2 2 2 2-2 2 2z" fill="#3b5892" data-original="#3b5892" style="" class=""/><path xmlns="http://www.w3.org/2000/svg" d="m28 34 2-2 2 2 2-2 .5.5v-20.5h-6.5z" fill="#4c6cb5" data-original="#4c6cb5" style="" class=""/><path xmlns="http://www.w3.org/2000/svg" d="m36 10v-4a4 4 0 0 0 -4-4 4 4 0 0 0 -4 4v4z" fill="#b5b5b5" data-original="#b5b5b5" style="" class=""/><path xmlns="http://www.w3.org/2000/svg" d="m36 34-4 8-4-8 2-2 2 2 2-2z" fill="#f2b9a1" data-original="#f2b9a1" style="" class=""/><path xmlns="http://www.w3.org/2000/svg" d="m34.5 37h-5l2.5 5z" fill="#939393" data-original="#939393" style="" class=""/><path xmlns="http://www.w3.org/2000/svg" d="m26 52-1.863 1.553a21.284 21.284 0 0 0 -6.137 8.447h6l1.5-1.877a8.324 8.324 0 0 1 6.5-3.123 8.324 8.324 0 0 1 6.5 3.123l1.5 1.877h6a21.284 21.284 0 0 0 -6.137-8.447l-1.863-1.553" fill="#b5b5b5" data-original="#b5b5b5" style="" class=""/><path xmlns="http://www.w3.org/2000/svg" d="m10 22h12v6h-12z" fill="#4a78a0" data-original="#5e87ca" style="" class=""/><path xmlns="http://www.w3.org/2000/svg" d="m42 22h12v6h-12z" fill="#4a78a0" data-original="#5e87ca" style="" class=""/><path xmlns="http://www.w3.org/2000/svg" d="m42 24h10v4h-10z" fill="#78a0d4" data-original="#78a0d4" style="" class=""/><path xmlns="http://www.w3.org/2000/svg" d="m10 24h10v4h-10z" fill="#78a0d4" data-original="#78a0d4" style="" class=""/><g xmlns="http://www.w3.org/2000/svg" fill="#ccc"><path d="m9 31h14v2h-14z" fill="#4a78a0" data-original="#cccccc" style="" class=""/><path d="m41 31h14v2h-14z" fill="#4a78a0" data-original="#cccccc" style="" class=""/><path d="m41 35h14v2h-14z" fill="#4a78a0" data-original="#cccccc" style="" class=""/><path d="m37 39h18v2h-18z" fill="#4a78a0" data-original="#cccccc" style="" class=""/><path d="m9 35h14v2h-14z" fill="#4a78a0" data-original="#cccccc" style="" class=""/><path d="m9 39h18v2h-18z" fill="#4a78a0" data-original="#cccccc" style="" class=""/><path d="m37 43h18v2h-18z" fill="#4a78a0" data-original="#cccccc" style="" class=""/><path d="m9 43h18v2h-18z" fill="#4a78a0" data-original="#cccccc" style="" class=""/></g><path xmlns="http://www.w3.org/2000/svg" d="m33 10h-2v23l1 1 1-1z" fill="#78a0d4" data-original="#78a0d4" style="" class=""/><path xmlns="http://www.w3.org/2000/svg" d="m32.5 4h-3.945a3.955 3.955 0 0 0 -.555 2v4h6.5v-4a2 2 0 0 0 -2-2z" fill="#4a78a0" data-original="#cccccc" style="" class=""/></g></svg>
